<svg width="248" height="41" viewBox="0 0 248 41" fill="none" xmlns="http://www.w3.org/2000/svg">
<path fill-rule="evenodd" clip-rule="evenodd" d="M123.625 10.1003C123.835 10.1003 124.002 10.268 124.002 10.4775V30.0914C124.002 30.3429 123.877 30.5105 123.583 30.5105H118.303C118.051 30.5105 117.883 30.3429 117.883 30.0914V10.5613C117.883 10.268 118.051 10.1003 118.344 10.1003H123.625ZM120.943 7.45999C118.722 7.45999 117.171 5.95123 117.171 3.68808C117.171 1.46685 118.722 0 120.943 0C123.206 0 124.673 1.46685 124.673 3.68808C124.673 5.95123 123.206 7.45999 120.943 7.45999ZM32.5965 30.9715C34.9854 30.9715 36.8294 30.0495 38.1287 28.3731L38.7992 30.0914C38.883 30.3429 39.0507 30.5105 39.3021 30.5105H43.1579C43.4093 30.5105 43.6189 30.3848 43.6189 30.0914V0.335301H40.4956H37.981C37.4581 0.317514 37.4581 0.335301 37.4581 0.62865V11.6091C36.2008 10.4356 34.6082 9.76504 32.5965 9.76504C26.4777 9.76504 22.3705 14.0399 22.3705 20.3683C22.3705 26.6548 26.4777 30.9715 32.5965 30.9715ZM37.4162 20.3683C37.4162 23.1763 35.5721 24.8527 32.9318 24.8527C30.3334 24.8527 28.4893 23.0086 28.4893 20.3683C28.4893 17.686 30.2496 15.842 32.9318 15.842C35.656 15.842 37.4581 17.6441 37.4162 20.3683ZM15.7163 12.2377C14.4171 10.6452 12.573 9.76504 10.2261 9.76504C4.10718 9.80695 0 14.0399 0 20.3683C0 26.6548 4.10718 31.0553 10.2261 30.9715C12.573 30.9715 14.4171 30.0495 15.7163 28.4569L16.3868 30.0914C16.4706 30.3429 16.5964 30.5105 16.8478 30.5105H21.2903C21.5837 30.5105 21.7513 30.301 21.7094 30.0914V10.5194C21.7094 10.268 21.5418 10.1003 21.3322 10.1003H16.8897C16.6383 10.1003 16.5126 10.268 16.4287 10.5194L15.7163 12.2377ZM6.11887 20.3683C6.11887 17.686 7.87909 15.8839 10.5613 15.8839C13.2436 15.8839 15.0876 17.686 15.0876 20.3683C15.0876 23.0924 13.2855 24.8527 10.5613 24.8527C7.96291 24.8527 6.11887 23.0086 6.11887 20.3683ZM66.2925 10.1003C66.6278 10.1003 66.7535 10.3518 66.6278 10.6452L59.3774 30.1333C59.2935 30.3848 59.0421 30.5105 58.7906 30.5105H52.7556C52.546 30.5105 52.2946 30.3848 52.2108 30.1333L44.9184 10.6452C44.7927 10.3518 44.9184 10.1003 45.2956 10.1003H50.9115C51.0792 10.1003 51.2887 10.2261 51.3725 10.4356L55.7731 23.1763L60.1737 10.4356C60.2575 10.2261 60.4251 10.1003 60.6347 10.1003H66.2925ZM72.4756 18.3985C72.9785 16.6802 74.2777 15.4648 76.5827 15.4648C78.8459 15.4648 80.1032 16.6802 80.6061 18.3985H72.4756ZM72.6432 22.7152H86.6412C86.9345 22.7152 87.1022 22.5476 87.1022 22.2542C87.1022 13.3274 82.7854 9.76504 76.5827 9.76504C70.2543 9.76504 66.0214 14.0399 66.0214 20.3683C66.0214 26.7386 70.2962 30.9715 76.6666 30.9715C80.1451 30.9296 82.995 30.1752 84.8809 28.1636C85.0486 27.954 85.0067 27.7025 84.839 27.5349L81.612 24.0983C81.5281 24.0145 81.4443 23.9725 81.3186 23.9725C81.1929 23.9725 81.0671 24.0145 80.8995 24.1402C80.187 24.685 78.8459 25.2718 77.0857 25.2718C74.6968 25.2718 73.3138 24.224 72.6432 22.7152ZM100.46 16.5545C100.418 16.5545 100.335 16.5545 100.251 16.5126C99.6641 16.2611 98.4906 15.9258 97.6524 15.9258C96.6465 15.9258 95.3892 16.5545 94.7606 17.7699V30.0495C94.7606 30.3429 94.6348 30.5105 94.3415 30.5105H89.0189C88.7255 30.5105 88.5579 30.3429 88.5579 30.0495V10.5613C88.5579 10.268 88.7255 10.1422 88.977 10.1003H92.707C93.0842 10.1003 93.2518 10.3937 93.2937 10.5613L93.7966 11.6929C95.1378 10.5194 96.8561 9.68122 98.8678 9.68122C100.001 9.68122 100.895 9.92079 101.55 10.0962C101.67 10.1283 101.782 10.1582 101.885 10.1841C102.137 10.268 102.262 10.4775 102.179 10.729L100.879 16.2611C100.838 16.4287 100.67 16.5545 100.46 16.5545ZM111.817 20.2006L111.859 15.842H115.379C115.631 15.842 115.798 15.6744 115.798 15.4648V10.5194C115.798 10.268 115.631 10.1003 115.379 10.1003H111.859V4.23292C111.859 3.98146 111.691 3.81382 111.44 3.81382H106.201C105.95 3.81382 105.824 3.98146 105.824 4.23292L105.782 10.1003H103.477C103.225 10.1003 103.058 10.268 103.058 10.5194V15.4648C103.058 15.6744 103.225 15.842 103.477 15.842H105.782V24.0983C105.74 28.0378 107.836 30.8877 111.943 30.8877C114.08 30.8877 115.84 30.0076 116.427 29.5466C116.637 29.4628 116.679 29.1694 116.595 28.876L115.212 24.2659C115.17 24.1402 115.002 24.0564 114.835 24.0564C114.751 24.0564 114.709 24.0564 114.625 24.0983C114.556 24.1212 114.453 24.1691 114.329 24.2267C114 24.3799 113.524 24.6012 113.158 24.6012C111.901 24.6012 111.859 23.5954 111.817 20.2006ZM125.976 28.6665C126.73 29.2532 130.209 30.8877 134.274 30.8877C139.136 30.9296 142.531 28.3312 142.405 24.0983C142.279 20.2845 139.723 18.7757 135.196 17.8118C133.185 17.3927 131.927 16.9736 131.927 16.2192C131.927 15.7582 132.849 15.2972 134.232 15.2972C134.568 15.2972 134.945 15.2972 135.364 15.381C136.948 15.6779 137.986 16.2087 138.601 16.5233C138.768 16.6083 138.903 16.6775 139.01 16.7221C139.094 16.764 139.178 16.764 139.303 16.764C139.471 16.764 139.639 16.6802 139.681 16.5545L141.818 12.573C141.944 12.3635 141.86 12.112 141.692 11.9863C141.022 11.4414 138.088 9.68122 134.442 9.68122C129.748 9.63931 125.599 11.8605 125.766 16.3449C125.892 19.4044 127.988 21.3322 131.76 22.4219C132.193 22.5519 132.61 22.6707 133.004 22.7829L133.006 22.7833L133.006 22.7834L133.006 22.7835C134.896 23.3215 136.244 23.7054 136.244 24.4336C136.244 24.9365 135.238 25.3137 133.897 25.3137C131.969 25.3137 130.251 24.6012 128.533 23.7211C128.449 23.6792 128.365 23.6373 128.281 23.6373C128.113 23.6373 127.988 23.7211 127.904 23.8887L125.85 28.0797C125.725 28.3312 125.766 28.4988 125.976 28.6665ZM149.904 10.1003C150.114 10.1003 150.281 10.268 150.281 10.4775V30.0914C150.281 30.3429 150.156 30.5105 149.862 30.5105H144.581C144.33 30.5105 144.162 30.3429 144.162 30.0914V10.5613C144.162 10.268 144.33 10.1003 144.623 10.1003H149.904ZM147.222 7.45999C145.001 7.45999 143.45 5.95123 143.45 3.68808C143.45 1.46685 145.001 0 147.222 0C149.485 0 150.952 1.46685 150.952 3.68808C150.952 5.95123 149.485 7.45999 147.222 7.45999ZM151.962 30.0914C151.962 30.301 152.171 30.4686 152.423 30.4686H157.703C157.913 30.4686 158.122 30.301 158.122 30.0914V20.5778C158.29 16.9736 159.966 15.842 161.559 15.8001C163.487 15.7582 164.954 17.3927 164.954 20.1587V30.0495C164.954 30.301 165.121 30.5105 165.373 30.5105H170.695C170.947 30.5105 171.114 30.3429 171.114 30.0495V18.7338C171.114 13.2436 167.971 9.5974 163.529 9.5974C160.888 9.5974 159.002 10.5194 157.703 12.112L157.284 10.5194C157.2 10.268 157.033 10.1003 156.739 10.1003H152.381C152.129 10.1003 151.962 10.268 151.962 10.5613V30.0914ZM172.484 20.3264C172.484 13.998 176.592 9.63931 182.794 9.63931C185.267 9.63931 187.153 10.6452 188.494 12.4054L189.29 10.5194C189.406 10.1729 189.557 10.1447 189.743 10.1099L189.769 10.105L189.793 10.1003H193.523C193.775 10.1003 193.942 10.268 193.942 10.5613L193.999 23.4239C192.233 24.2006 191 25.9615 191 28.0094C191 29.9397 192.095 31.6149 193.7 32.4514C192.571 37.3757 188.597 40.4851 183.171 40.4851C178.855 40.4432 176.005 39.1021 174.706 38.3058C174.454 38.1381 174.37 37.9286 174.538 37.6352L176.759 32.9832C176.801 32.8575 176.969 32.7737 177.094 32.7737C177.178 32.7737 177.262 32.7737 177.346 32.8156C178.226 33.2766 180.447 34.2405 182.71 34.3243C186.147 34.3243 187.823 32.2707 187.823 29.1275V29.0437C186.566 30.301 184.89 31.0134 182.794 31.0134C176.592 30.9296 172.484 26.6967 172.484 20.3264ZM183.171 15.8001C180.447 15.8001 178.645 17.5184 178.645 20.2845C178.645 23.0086 180.447 24.8107 183.088 24.8107C185.938 24.7688 187.782 23.0086 187.782 20.2845C187.782 17.5603 186.021 15.8001 183.171 15.8001Z" fill="url(#paint0_linear_90_18196)"/>
<path d="M202.648 24.0231V20.3612H205.211C205.382 20.3612 205.496 20.2476 205.496 20.1057V17.2103C205.496 17.0399 205.382 16.9264 205.211 16.9264H202.648V12.8671C202.648 12.6967 202.534 12.5832 202.363 12.5832H199.259C199.088 12.5832 199.002 12.6967 199.002 12.8671L198.974 16.9264H197.294C197.123 16.9264 197.009 17.0399 197.009 17.2103V20.1057C197.009 20.2476 197.123 20.3612 197.294 20.3612H198.974V26.1521C198.945 28.9908 200.426 30.7508 202.904 30.7508C203.901 30.7508 205.126 30.4669 205.923 29.8424C206.065 29.7572 206.094 29.5869 206.009 29.3882L205.126 26.6914C205.069 26.6063 204.983 26.5495 204.869 26.5495C204.812 26.5495 204.784 26.5495 204.727 26.5779C204.528 26.6914 204.015 26.9753 203.645 26.9753C202.762 26.9753 202.648 26.294 202.648 24.0231Z" fill="#142753"/>
<path d="M209.651 22.5186C209.993 21.0992 211.046 20.1341 212.812 20.1341C214.549 20.1341 215.603 21.0992 215.945 22.5186H209.651ZM209.736 25.1586H219.562C219.733 25.1869 219.847 25.045 219.847 24.8747C219.875 19.1406 217.027 16.6709 212.812 16.6709C208.597 16.6709 205.778 19.538 205.778 23.7392C205.778 27.9689 208.626 30.8075 212.926 30.8075C215.261 30.7791 217.17 30.2398 218.423 28.8772C218.537 28.7353 218.508 28.565 218.394 28.4514L216.458 26.436C216.401 26.3792 216.344 26.3224 216.258 26.3224C216.173 26.3224 216.087 26.3792 215.973 26.4644C215.404 26.9469 214.436 27.3443 213.154 27.3443C211.303 27.3443 210.164 26.4644 209.736 25.1586Z" fill="#142753"/>
<path d="M233.113 27.9972C233.198 27.8553 233.17 27.685 233.056 27.5998L230.92 25.5844C230.863 25.5276 230.778 25.4992 230.721 25.4992C230.607 25.4992 230.493 25.556 230.407 25.6411C229.923 26.2373 229.04 27.1456 227.331 27.1456C225.309 27.1456 223.971 25.7831 223.971 23.7392C223.971 21.6954 225.309 20.3328 227.331 20.3328C228.67 20.3328 229.752 20.9289 230.493 21.9792C230.55 22.0928 230.664 22.1496 230.749 22.1496C230.806 22.1496 230.892 22.1212 230.948 22.0644L233.341 20.1341C233.455 20.0489 233.455 19.8786 233.341 19.7367C231.888 17.5509 229.781 16.6709 227.218 16.6709C223.715 16.7277 220.297 19.0838 220.297 23.7392C220.297 27.9405 223.116 30.8075 227.331 30.8075C229.923 30.8075 231.888 29.814 233.113 27.9972Z" fill="#142753"/>
<path d="M234.473 30.2114C234.473 30.3817 234.587 30.4953 234.757 30.4953H237.89C238.061 30.4953 238.175 30.3817 238.175 30.2114V23.8812C238.289 21.3831 239.542 20.3328 240.909 20.3044C242.362 20.3044 243.444 21.3831 243.444 23.427V30.2114C243.415 30.3817 243.558 30.4953 243.729 30.4953H246.862C247.032 30.4953 247.146 30.3817 247.146 30.2114V22.6605C247.146 18.9135 245.039 16.5857 242.02 16.5857C240.283 16.5857 239.029 17.2103 238.175 18.2322V10.2839C238.175 10.1135 238.061 10 237.862 10H234.757C234.558 10 234.444 10.1135 234.444 10.2839L234.473 30.2114Z" fill="#142753"/>
<path d="M198.685 27.9906C198.685 29.374 197.56 30.4954 196.172 30.4954C194.785 30.4954 193.659 29.374 193.659 27.9906C193.659 26.6073 194.785 25.4859 196.172 25.4859C197.56 25.4859 198.685 26.6073 198.685 27.9906Z" fill="#142753"/>
<mask id="mask0_90_18196" style="mask-type:alpha" maskUnits="userSpaceOnUse" x="0" y="0" width="195" height="41">
<path d="M15.7163 12.2377C14.4171 10.6452 12.573 9.76504 10.2261 9.76504C4.10718 9.80695 0 14.0399 0 20.3683C0 26.6548 4.10718 31.0553 10.2261 30.9715C12.573 30.9715 14.4171 30.0495 15.7163 28.4569L16.3868 30.0914C16.4706 30.3429 16.5964 30.5105 16.8478 30.5105H21.2903C21.5837 30.5105 21.7513 30.301 21.7094 30.0914V10.5194C21.7094 10.268 21.5418 10.1003 21.3322 10.1003H16.8897C16.6383 10.1003 16.5126 10.268 16.4287 10.5194L15.7163 12.2377ZM6.11887 20.3683C6.11887 17.686 7.87909 15.8839 10.5613 15.8839C13.2436 15.8839 15.0876 17.686 15.0876 20.3683C15.0876 23.0924 13.2855 24.8527 10.5613 24.8527C7.96291 24.8527 6.11887 23.0086 6.11887 20.3683Z" fill="url(#paint1_linear_90_18196)"/>
<path d="M32.5965 30.9715C34.9854 30.9715 36.8294 30.0495 38.1286 28.3731L38.7992 30.0914C38.883 30.3429 39.0507 30.5105 39.3021 30.5105H43.1579C43.4093 30.5105 43.6189 30.3848 43.6189 30.0914V0.335301C43.6189 0.335301 40.789 0.335301 40.4956 0.335301H37.981C37.4581 0.317514 37.4581 0.335301 37.4581 0.62865V11.6091C36.2008 10.4356 34.6082 9.76504 32.5965 9.76504C26.4777 9.76504 22.3705 14.0399 22.3705 20.3683C22.3705 26.6548 26.4777 30.9715 32.5965 30.9715ZM37.4162 20.3683C37.4162 23.1763 35.5721 24.8527 32.9318 24.8527C30.3334 24.8527 28.4893 23.0086 28.4893 20.3683C28.4893 17.686 30.2496 15.842 32.9318 15.842C35.656 15.842 37.4581 17.6441 37.4162 20.3683Z" fill="url(#paint2_linear_90_18196)"/>
<path d="M66.6278 10.6452C66.7535 10.3518 66.6278 10.1003 66.2925 10.1003H60.6347C60.4251 10.1003 60.2575 10.2261 60.1737 10.4356L55.7731 23.1763L51.3725 10.4356C51.2887 10.2261 51.0792 10.1003 50.9115 10.1003H45.2956C44.9184 10.1003 44.7927 10.3518 44.9184 10.6452L52.2107 30.1333C52.2946 30.3848 52.546 30.5105 52.7556 30.5105H58.7906C59.0421 30.5105 59.2936 30.3848 59.3774 30.1333L66.6278 10.6452Z" fill="url(#paint3_linear_90_18196)"/>
<path d="M72.4756 18.3985C72.9785 16.6802 74.2777 15.4648 76.5828 15.4648C78.8459 15.4648 80.1032 16.6802 80.6061 18.3985H72.4756ZM72.6432 22.7152H86.6412C86.9345 22.7152 87.1022 22.5476 87.1022 22.2542C87.1022 13.3274 82.7854 9.76504 76.5828 9.76504C70.2543 9.76504 66.0214 14.0399 66.0214 20.3683C66.0214 26.7386 70.2962 30.9715 76.6666 30.9715C80.1451 30.9296 82.995 30.1752 84.8809 28.1636C85.0486 27.954 85.0067 27.7025 84.839 27.5349L81.612 24.0983C81.5281 24.0145 81.4443 23.9725 81.3186 23.9725C81.1929 23.9725 81.0671 24.0145 80.8995 24.1402C80.187 24.685 78.8459 25.2718 77.0857 25.2718C74.6968 25.2718 73.3138 24.224 72.6432 22.7152Z" fill="url(#paint4_linear_90_18196)"/>
<path d="M100.251 16.5126C100.335 16.5545 100.418 16.5545 100.46 16.5545C100.67 16.5545 100.838 16.4287 100.879 16.2611L102.179 10.729C102.262 10.4775 102.137 10.268 101.885 10.1841C101.215 10.0165 100.209 9.68122 98.8678 9.68122C96.8561 9.68122 95.1378 10.5194 93.7966 11.6929L93.2937 10.5613C93.2518 10.3937 93.0842 10.1003 92.707 10.1003H88.977C88.7255 10.1422 88.5579 10.268 88.5579 10.5613V30.0495C88.5579 30.3429 88.7255 30.5105 89.0189 30.5105H94.3415C94.6349 30.5105 94.7606 30.3429 94.7606 30.0495V17.7699C95.3892 16.5545 96.6465 15.9258 97.6524 15.9258C98.4906 15.9258 99.6641 16.2611 100.251 16.5126Z" fill="url(#paint5_linear_90_18196)"/>
<path d="M111.817 20.2006L111.859 15.842H115.379C115.631 15.842 115.798 15.6744 115.798 15.4648V10.5194C115.798 10.268 115.631 10.1003 115.379 10.1003H111.859V4.23292C111.859 3.98146 111.691 3.81382 111.44 3.81382H106.201C105.95 3.81382 105.824 3.98146 105.824 4.23292L105.782 10.1003H103.477C103.225 10.1003 103.058 10.268 103.058 10.5194V15.4648C103.058 15.6744 103.225 15.842 103.477 15.842H105.782V24.0983C105.74 28.0378 107.836 30.8877 111.943 30.8877C114.08 30.8877 115.84 30.0076 116.427 29.5466C116.637 29.4628 116.679 29.1694 116.595 28.876L115.212 24.2659C115.17 24.1402 115.002 24.0564 114.835 24.0564C114.751 24.0564 114.709 24.0564 114.625 24.0983C114.374 24.1821 113.661 24.6012 113.158 24.6012C111.901 24.6012 111.859 23.5954 111.817 20.2006Z" fill="url(#paint6_linear_90_18196)"/>
<path d="M124.002 10.4775C124.002 10.268 123.835 10.1003 123.625 10.1003H118.344C118.051 10.1003 117.883 10.268 117.883 10.5613V30.0914C117.883 30.3429 118.051 30.5105 118.303 30.5105H123.583C123.877 30.5105 124.002 30.3429 124.002 30.0914V10.4775ZM117.171 3.68808C117.171 5.95123 118.722 7.45999 120.943 7.45999C123.206 7.45999 124.673 5.95123 124.673 3.68808C124.673 1.46685 123.206 0 120.943 0C118.722 0 117.171 1.46685 117.171 3.68808Z" fill="url(#paint7_linear_90_18196)"/>
<path d="M125.976 28.6665C126.73 29.2532 130.209 30.8877 134.274 30.8877C139.136 30.9296 142.53 28.3312 142.405 24.0983C142.279 20.2845 139.723 18.7757 135.196 17.8118C133.185 17.3927 131.927 16.9736 131.927 16.2192C131.927 15.7582 132.849 15.2972 134.232 15.2972C134.568 15.2972 134.945 15.2972 135.364 15.381C137.376 15.7582 138.507 16.5126 139.01 16.7221C139.094 16.764 139.178 16.764 139.303 16.764C139.471 16.764 139.639 16.6802 139.681 16.5545L141.818 12.573C141.944 12.3635 141.86 12.112 141.692 11.9863C141.022 11.4414 138.088 9.68122 134.442 9.68122C129.748 9.63931 125.599 11.8605 125.766 16.3449C125.892 19.4044 127.988 21.3322 131.76 22.4219C134.274 23.1763 136.244 23.5534 136.244 24.4336C136.244 24.9365 135.238 25.3137 133.897 25.3137C131.969 25.3137 130.251 24.6012 128.533 23.7211C128.449 23.6792 128.365 23.6373 128.281 23.6373C128.113 23.6373 127.988 23.7211 127.904 23.8887L125.85 28.0797C125.725 28.3312 125.766 28.4988 125.976 28.6665Z" fill="url(#paint8_linear_90_18196)"/>
<path d="M150.281 10.4775C150.281 10.268 150.114 10.1003 149.904 10.1003H144.623C144.33 10.1003 144.162 10.268 144.162 10.5613V30.0914C144.162 30.3429 144.33 30.5105 144.581 30.5105H149.862C150.156 30.5105 150.281 30.3429 150.281 30.0914V10.4775ZM143.45 3.68808C143.45 5.95123 145.001 7.45999 147.222 7.45999C149.485 7.45999 150.952 5.95123 150.952 3.68808C150.952 1.46685 149.485 0 147.222 0C145.001 0 143.45 1.46685 143.45 3.68808Z" fill="url(#paint9_linear_90_18196)"/>
<path d="M151.962 30.0914C151.962 30.301 152.171 30.4686 152.423 30.4686H157.703C157.913 30.4686 158.122 30.301 158.122 30.0914V20.5778C158.29 16.9736 159.966 15.842 161.559 15.8001C163.487 15.7582 164.954 17.3927 164.954 20.1587V30.0495C164.954 30.301 165.121 30.5105 165.373 30.5105H170.695C170.947 30.5105 171.114 30.3429 171.114 30.0495V18.7338C171.114 13.2436 167.971 9.5974 163.529 9.5974C160.888 9.5974 159.002 10.5194 157.703 12.112L157.284 10.5194C157.2 10.268 157.033 10.1003 156.739 10.1003H152.381C152.129 10.1003 151.962 10.268 151.962 10.5613V30.0914Z" fill="url(#paint10_linear_90_18196)"/>
<path d="M182.794 9.63931C176.592 9.63931 172.484 13.998 172.484 20.3264C172.484 26.6967 176.592 30.9296 182.794 31.0134C184.89 31.0134 186.566 30.301 187.823 29.0437V29.1275C187.823 32.2707 186.147 34.3243 182.71 34.3243C180.447 34.2405 178.226 33.2766 177.346 32.8156C177.262 32.7737 177.178 32.7737 177.095 32.7737C176.969 32.7737 176.801 32.8575 176.759 32.9832L174.538 37.6352C174.37 37.9286 174.454 38.1381 174.706 38.3058C176.005 39.1021 178.855 40.4432 183.171 40.4851C189.626 40.4851 194.026 36.0846 194.026 29.4628L193.942 10.5613C193.942 10.268 193.775 10.1003 193.523 10.1003H189.793C189.584 10.1422 189.416 10.1422 189.29 10.5194L188.494 12.4054C187.153 10.6452 185.267 9.63931 182.794 9.63931ZM178.645 20.2845C178.645 17.5184 180.447 15.8001 183.171 15.8001C186.021 15.8001 187.782 17.5603 187.782 20.2845C187.782 23.0086 185.938 24.7688 183.088 24.8107C180.447 24.8107 178.645 23.0086 178.645 20.2845Z" fill="url(#paint11_linear_90_18196)"/>
</mask>
<g mask="url(#mask0_90_18196)">
<rect opacity="0.2" x="1.32812" y="12.0703" width="47.3538" height="7.88362" transform="rotate(20.3504 1.32812 12.0703)" fill="black"/>
<rect opacity="0.2" x="55.8105" y="12.0701" width="47.3538" height="7.88362" transform="rotate(20.3504 55.8105 12.0701)" fill="black"/>
<rect opacity="0.2" x="43.9785" y="0.437012" width="40.3698" height="10.7162" transform="rotate(120 43.9785 0.437012)" fill="#24114E"/>
<rect opacity="0.2" x="98.4609" y="0.437012" width="40.3698" height="10.7162" transform="rotate(120 98.4609 0.437012)" fill="#24114E"/>
<rect opacity="0.2" x="34.3203" y="0.391357" width="39.059" height="6.69303" transform="rotate(45 34.3203 0.391357)" fill="black"/>
<rect opacity="0.2" x="88.8027" y="0.391602" width="39.059" height="6.69303" transform="rotate(45 88.8027 0.391602)" fill="black"/>
<rect opacity="0.2" x="138.424" y="11.6167" width="95.9074" height="31.4163" transform="rotate(150 138.424 11.6167)" fill="#24114E"/>
<rect opacity="0.2" x="196.365" y="9.62061" width="78.3265" height="19.5807" transform="rotate(150 196.365 9.62061)" fill="#24114E"/>
<rect opacity="0.2" x="188.119" y="40.6367" width="32.5833" height="5.88196" transform="rotate(-118.219 188.119 40.6367)" fill="#24114E"/>
</g>
<defs>
<linearGradient id="paint0_linear_90_18196" x1="2.77654" y1="11.651" x2="193.886" y2="32.606" gradientUnits="userSpaceOnUse">
<stop stop-color="#5D1BEF"/>
<stop offset="1" stop-color="#3089F7"/>
</linearGradient>
<linearGradient id="paint1_linear_90_18196" x1="2.77654" y1="11.651" x2="193.886" y2="32.606" gradientUnits="userSpaceOnUse">
<stop stop-color="#5D1BEF"/>
<stop offset="1" stop-color="#3089F7"/>
</linearGradient>
<linearGradient id="paint2_linear_90_18196" x1="2.77654" y1="11.651" x2="193.886" y2="32.606" gradientUnits="userSpaceOnUse">
<stop stop-color="#5D1BEF"/>
<stop offset="1" stop-color="#3089F7"/>
</linearGradient>
<linearGradient id="paint3_linear_90_18196" x1="2.77654" y1="11.651" x2="193.886" y2="32.606" gradientUnits="userSpaceOnUse">
<stop stop-color="#5D1BEF"/>
<stop offset="1" stop-color="#3089F7"/>
</linearGradient>
<linearGradient id="paint4_linear_90_18196" x1="2.77654" y1="11.651" x2="193.886" y2="32.606" gradientUnits="userSpaceOnUse">
<stop stop-color="#5D1BEF"/>
<stop offset="1" stop-color="#3089F7"/>
</linearGradient>
<linearGradient id="paint5_linear_90_18196" x1="2.77654" y1="11.651" x2="193.886" y2="32.606" gradientUnits="userSpaceOnUse">
<stop stop-color="#5D1BEF"/>
<stop offset="1" stop-color="#3089F7"/>
</linearGradient>
<linearGradient id="paint6_linear_90_18196" x1="2.77654" y1="11.651" x2="193.886" y2="32.606" gradientUnits="userSpaceOnUse">
<stop stop-color="#5D1BEF"/>
<stop offset="1" stop-color="#3089F7"/>
</linearGradient>
<linearGradient id="paint7_linear_90_18196" x1="2.77654" y1="11.651" x2="193.886" y2="32.606" gradientUnits="userSpaceOnUse">
<stop stop-color="#5D1BEF"/>
<stop offset="1" stop-color="#3089F7"/>
</linearGradient>
<linearGradient id="paint8_linear_90_18196" x1="2.77654" y1="11.651" x2="193.886" y2="32.606" gradientUnits="userSpaceOnUse">
<stop stop-color="#5D1BEF"/>
<stop offset="1" stop-color="#3089F7"/>
</linearGradient>
<linearGradient id="paint9_linear_90_18196" x1="2.77654" y1="11.651" x2="193.886" y2="32.606" gradientUnits="userSpaceOnUse">
<stop stop-color="#5D1BEF"/>
<stop offset="1" stop-color="#3089F7"/>
</linearGradient>
<linearGradient id="paint10_linear_90_18196" x1="2.77654" y1="11.651" x2="193.886" y2="32.606" gradientUnits="userSpaceOnUse">
<stop stop-color="#5D1BEF"/>
<stop offset="1" stop-color="#3089F7"/>
</linearGradient>
<linearGradient id="paint11_linear_90_18196" x1="2.77654" y1="11.651" x2="193.886" y2="32.606" gradientUnits="userSpaceOnUse">
<stop stop-color="#5D1BEF"/>
<stop offset="1" stop-color="#3089F7"/>
</linearGradient>
</defs>
</svg>
